<svg aria-hidden="true" style="position: absolute; width: 0; height: 0; overflow: hidden;" version="1.1" xmlns="http://www.w3.org/2000/svg" xmlns:xlink="http://www.w3.org/1999/xlink">
<defs>
<symbol id="icon-stars" viewBox="0 0 211 32">
<path fill="#ffa800" style="fill: var(--color1, #ffa800)" d="M121.555 28.235c-0.002 0-0.004 0-0.005 0-0.272 0-0.493-0.221-0.493-0.493 0-0.030 0.003-0.059 0.008-0.088l-0 0.003 1.542-8.922-6.532-6.315c-0.094-0.090-0.152-0.216-0.152-0.356 0-0.25 0.186-0.457 0.428-0.489l0.002-0 9.022-1.301 4.036-8.115c0.083-0.166 0.252-0.278 0.447-0.278s0.364 0.112 0.446 0.275l0.001 0.003 4.036 8.115 9.022 1.301c0.188 0.028 0.344 0.158 0.403 0.339 0.058 0.177 0.011 0.376-0.126 0.506l-6.528 6.317 1.54 8.919c0.004 0.024 0.006 0.052 0.006 0.080 0 0.276-0.223 0.499-0.499 0.499-0.085 0-0.165-0.021-0.235-0.059l0.003 0.001-8.068-4.211-8.072 4.211c-0.067 0.036-0.147 0.056-0.231 0.056h-0zM83.473 28.235c-0.002 0-0.004 0-0.005 0-0.272 0-0.493-0.221-0.493-0.493 0-0.030 0.003-0.059 0.008-0.088l-0 0.003 1.544-8.922-6.532-6.315c-0.094-0.090-0.152-0.216-0.152-0.356 0-0.25 0.186-0.457 0.428-0.489l0.002-0 9.022-1.301 4.036-8.115c0.083-0.166 0.252-0.278 0.447-0.278s0.364 0.112 0.446 0.275l0.001 0.003 4.034 8.115 9.024 1.301c0.188 0.028 0.344 0.158 0.403 0.339 0.058 0.177 0.009 0.376-0.126 0.506l-6.53 6.317 1.542 8.919c0.004 0.024 0.006 0.051 0.006 0.079 0 0.276-0.223 0.499-0.499 0.499-0.084 0-0.163-0.021-0.233-0.058l0.003 0.001-8.072-4.211-8.072 4.211c-0.067 0.035-0.147 0.056-0.231 0.056h-0zM45.44 28.235c-0 0-0.001 0-0.001 0-0.11 0-0.211-0.035-0.294-0.095l0.001 0.001c-0.125-0.090-0.205-0.235-0.205-0.399 0-0.030 0.003-0.060 0.008-0.089l-0 0.003 1.542-8.92-6.53-6.315c-0.094-0.090-0.152-0.216-0.152-0.356 0-0.25 0.186-0.456 0.426-0.489l0.003-0 9.024-1.301 4.034-8.115c0.083-0.166 0.252-0.278 0.447-0.278s0.364 0.112 0.446 0.275l0.001 0.003 4.036 8.115 9.022 1.301c0.188 0.028 0.344 0.158 0.405 0.339 0.056 0.177 0.009 0.376-0.126 0.506l-6.532 6.317 1.544 8.919c0.004 0.024 0.006 0.052 0.006 0.080 0 0.276-0.223 0.499-0.499 0.499-0.085 0-0.165-0.021-0.235-0.059l0.003 0.001-8.070-4.211-8.072 4.211c-0.067 0.035-0.147 0.056-0.231 0.056h-0zM7.309 28.235c-0.002 0-0.004 0-0.005 0-0.272 0-0.493-0.221-0.493-0.493 0-0.030 0.003-0.059 0.008-0.088l-0 0.003 1.542-8.922-6.53-6.315c-0.094-0.090-0.152-0.216-0.152-0.356 0-0.25 0.186-0.456 0.426-0.489l0.003-0 9.024-1.301 4.036-8.115c0.084-0.165 0.252-0.276 0.446-0.276s0.362 0.111 0.445 0.273l0.001 0.003 4.036 8.115 9.024 1.301c0.188 0.028 0.343 0.158 0.403 0.339 0.056 0.177 0.009 0.376-0.126 0.506l-6.53 6.317 1.542 8.919c0.004 0.024 0.006 0.051 0.006 0.079 0 0.276-0.223 0.499-0.499 0.499-0.084 0-0.163-0.021-0.233-0.058l0.003 0.001-8.072-4.211-8.072 4.211c-0.067 0.035-0.147 0.056-0.231 0.056h-0z"></path>
<path fill="#ffa800" style="fill: var(--color1, #ffa800)" opacity="0.5" d="M157.352 28.235c-0.002 0-0.005 0-0.008 0-0.271 0-0.491-0.22-0.491-0.491 0-0.031 0.003-0.061 0.008-0.090l-0 0.003 1.542-8.922-6.532-6.315c-0.094-0.090-0.152-0.216-0.152-0.356 0-0.25 0.186-0.457 0.428-0.489l0.002-0 9.022-1.301 4.036-8.115c0.083-0.166 0.252-0.278 0.447-0.278s0.364 0.112 0.446 0.275l0.001 0.003 4.036 8.115 9.022 1.301c0.188 0.028 0.344 0.158 0.403 0.339 0.058 0.177 0.011 0.376-0.126 0.506l-6.53 6.317 1.544 8.919c0.004 0.024 0.006 0.051 0.006 0.079 0 0.276-0.223 0.499-0.499 0.499-0.084 0-0.163-0.021-0.233-0.058l0.003 0.001-8.072-4.211-8.072 4.211c-0.067 0.035-0.147 0.056-0.231 0.056h-0z"></path>
</symbol>
<symbol id="icon-heart" viewBox="0 0 33 32">
<path fill="#33485d" style="fill: var(--color2, #33485d)" d="M31.506 8.348c-1.056-2.865-3.586-4.739-6.601-4.893l-0.034-0.001h-0.443c-3.806 0-7.074 2.343-8.439 5.663-1.365-3.319-4.634-5.663-8.439-5.663h-0.477c-3.008 0.155-5.53 2.031-6.58 4.898-1.085 2.96-0.346 6.125 1.927 8.256l11.957 11.31c0.433 0.39 1.009 0.629 1.641 0.629 0.001 0 0.001 0 0.002 0h-0c0.591 0 1.178-0.213 1.627-0.64l1.819-1.715c0.455-0.457 0.715-1.058 0.726-1.694 0-0.016 0.001-0.035 0.001-0.054 0-0.651-0.265-1.241-0.694-1.666l-0-0c-0.124-0.13-0.299-0.211-0.493-0.211-0.376 0-0.681 0.305-0.681 0.681 0 0.194 0.081 0.369 0.211 0.493l0 0c0.407 0.409 0.393 1.061-0.019 1.474l-1.805 1.702c-0.386 0.366-1.013 0.359-1.412 0l-11.947-11.301c-1.87-1.754-2.476-4.358-1.582-6.797 0.857-2.34 2.908-3.874 5.355-4.004h0.423c4.278 0 7.759 3.481 7.759 7.759 0 0.376 0.305 0.681 0.681 0.681s0.681-0.305 0.681-0.681v0c0-4.278 3.481-7.759 7.759-7.759h0.425c2.453 0.131 4.512 1.664 5.376 4.004 0.896 2.43 0.293 5.035-1.586 6.813l-3.811 3.811c-0.437 0.43-0.708 1.028-0.709 1.688v0c0 0.633 0.252 1.232 0.709 1.69 0.122 0.116 0.287 0.188 0.469 0.188 0.376 0 0.681-0.305 0.681-0.681 0-0.182-0.072-0.347-0.188-0.47l0 0c-0.19-0.185-0.308-0.442-0.31-0.727v-0c0-0.268 0.11-0.526 0.31-0.726l3.797-3.797c2.269-2.146 3.003-5.311 1.915-8.26z"></path>
</symbol>
<symbol id="icon-path-left" viewBox="0 0 18 32">
<path fill="#33485d" style="fill: var(--color2, #33485d)" d="M14.746 0.797c0.198-0.192 0.469-0.31 0.767-0.31 0.609 0 1.103 0.494 1.103 1.103 0 0.298-0.118 0.568-0.31 0.767l-13.643 13.643 13.643 13.643c0.192 0.198 0.31 0.469 0.31 0.767 0 0.609-0.494 1.103-1.103 1.103-0.298 0-0.568-0.118-0.767-0.31l-14.423-14.422c-0.2-0.2-0.324-0.476-0.324-0.781s0.124-0.581 0.324-0.781v0l14.423-14.423z"></path>
</symbol>
<symbol id="icon-path-right" viewBox="0 0 18 32">
<path fill="#33485d" style="fill: var(--color2, #33485d)" d="M1.962 0.797c-0.198-0.192-0.469-0.31-0.767-0.31-0.609 0-1.103 0.494-1.103 1.103 0 0.298 0.118 0.568 0.31 0.767l13.643 13.643-13.643 13.643c-0.208 0.201-0.337 0.482-0.337 0.794 0 0.609 0.494 1.103 1.103 1.103 0.311 0 0.593-0.129 0.793-0.337l14.423-14.422c0.2-0.2 0.324-0.476 0.324-0.781s-0.124-0.581-0.324-0.781v0l-14.421-14.423z"></path>
</symbol>
<symbol id="icon-check" viewBox="0 0 34 32">
<path fill="#219653" style="fill: var(--color3, #219653)" d="M17.544 19.168l13.123-14.403 1.733 1.579-14.736 16.173-8.032-7.637 1.616-1.696 6.296 5.986zM31.49 10.784l-1.827 2.013c0.264 1.019 0.406 2.086 0.406 3.187 0 6.979-5.678 12.656-12.656 12.656-6.979 0-12.656-5.677-12.656-12.656 0-6.978 5.677-12.656 12.656-12.656 3.232 0 6.186 1.219 8.426 3.221l1.579-1.739c-2.627-2.372-6.126-3.824-9.963-3.824-0.015 0-0.029 0-0.044 0h0.002c-0.013-0-0.028-0-0.044-0-4.128 0-7.865 1.679-10.563 4.391l-0.001 0.001c-2.713 2.699-4.392 6.436-4.392 10.564 0 0.015 0 0.031 0 0.046v-0.002c0 4.005 1.56 7.773 4.392 10.605 2.699 2.714 6.436 4.394 10.566 4.394 0.015 0 0.030-0 0.045-0h-0.002c0.012 0 0.026 0 0.041 0 4.129 0 7.866-1.68 10.565-4.393l0.001-0.001c2.714-2.7 4.394-6.437 4.394-10.566 0-0.014-0-0.028-0-0.042v0.002c0-0.006 0-0.012 0-0.019 0-1.86-0.339-3.641-0.957-5.284l0.034 0.103z"></path>
</symbol>
</defs>
</svg>
