<svg aria-hidden="true" style="position: absolute; width: 0; height: 0; overflow: hidden;" version="1.1" xmlns="http://www.w3.org/2000/svg" xmlns:xlink="http://www.w3.org/1999/xlink">
<defs>
<symbol id="icon-buy" viewBox="0 0 34 32">
<path fill="#fff" style="fill: var(--color1, #fff)" d="M34.143 4.857c-0.143-0.143-0.286-0.286-0.571-0.286h-27.143l-0.714-3.714c0-0.286-0.429-0.571-0.714-0.571h-4.286c-0.429 0-0.714 0.286-0.714 0.714s0.286 0.714 0.714 0.714h3.714l3.429 17.429c0.429 2.286 2.571 4 4.857 4h16.429c0.429 0 0.714-0.286 0.714-0.714s-0.286-0.714-0.714-0.714h-16.286c-1.143 0-2.286-0.571-2.857-1.571l20.857-2.857c0.286 0 0.571-0.286 0.571-0.571l2.857-11.429s0-0.286-0.143-0.429zM30.143 16l-20.857 2.714-2.571-12.857h25.857l-2.429 10.143zM12.143 24.571c-0.010-0-0.022-0-0.034-0-1.954 0-3.537 1.584-3.537 3.537 0 0.012 0 0.024 0 0.036v-0.002c-0 0.010-0 0.022-0 0.034 0 1.953 1.584 3.537 3.537 3.537 0.012 0 0.024-0 0.036-0h-0.002c0.010 0 0.022 0 0.034 0 1.954 0 3.537-1.584 3.537-3.537 0-0.012-0-0.024-0-0.036v0.002c0-0.010 0-0.022 0-0.034 0-1.954-1.584-3.537-3.537-3.537-0.012 0-0.024 0-0.036 0h0.002zM12.143 30.286c-1.143 0-2.143-1-2.143-2.143s1-2.143 2.143-2.143 2.143 1 2.143 2.143-1 2.143-2.143 2.143zM26.429 24.571c-0.010-0-0.022-0-0.034-0-1.953 0-3.537 1.584-3.537 3.537 0 0.012 0 0.024 0 0.036v-0.002c-0 0.010-0 0.022-0 0.034 0 1.953 1.584 3.537 3.537 3.537 0.012 0 0.024-0 0.036-0h-0.002c0.010 0 0.022 0 0.034 0 1.954 0 3.537-1.584 3.537-3.537 0-0.012-0-0.024-0-0.036v0.002c0-0.010 0-0.022 0-0.034 0-1.954-1.584-3.537-3.537-3.537-0.012 0-0.024 0-0.036 0h0.002zM26.429 30.286c-1.143 0-2.143-1-2.143-2.143s1-2.143 2.143-2.143 2.143 1 2.143 2.143-1 2.143-2.143 2.143z"></path>
</symbol>
<symbol id="icon-guarantee" viewBox="0 0 29 32">
<path fill="#219653" style="fill: var(--color2, #219653)" d="M27.994 8.683v-0.027c-0.013-0.272-0.024-0.619-0.030-0.968l-0-0.027c-0.035-1.776-1.43-3.215-3.184-3.321l-0.009-0c-3.68-0.205-6.525-1.405-8.957-3.776l-0.021-0.018c-0.364-0.338-0.854-0.546-1.392-0.546s-1.028 0.208-1.393 0.547l0.001-0.001-0.021 0.019c-2.432 2.371-5.275 3.571-8.955 3.776-1.765 0.105-3.161 1.546-3.195 3.32l-0 0.003c-0.005 0.358-0.014 0.683-0.029 0.992v0.059c-0.072 3.752-0.16 8.421 1.4 12.659 0.868 2.359 2.187 4.371 3.865 6.018l0.002 0.002c1.942 1.898 4.488 3.403 7.565 4.475 0.226 0.081 0.487 0.128 0.759 0.13h0.001c0 0 0 0 0.001 0 0.273 0 0.534-0.047 0.777-0.135l-0.016 0.005c3.072-1.075 5.616-2.581 7.557-4.477 1.68-1.651 2.999-3.664 3.831-5.912l0.036-0.112c1.568-4.25 1.478-8.928 1.408-12.688zM24.824 20.72c-1.648 4.467-5.011 7.536-10.282 9.378-0.042 0.016-0.091 0.025-0.142 0.025s-0.099-0.009-0.145-0.026l0.003 0.001c-5.277-1.84-8.642-4.906-10.288-9.373-1.44-3.906-1.36-8.192-1.286-11.973v-0.022c0.016-0.325 0.024-0.664 0.030-1.040 0.017-0.789 0.637-1.427 1.417-1.473l0.004-0c2.080-0.117 3.91-0.518 5.592-1.23 1.768-0.764 3.279-1.796 4.558-3.062l-0.001 0.001c0.031-0.028 0.071-0.045 0.116-0.045s0.085 0.017 0.116 0.045l-0-0c1.387 1.349 2.878 2.35 4.557 3.061 1.68 0.712 3.51 1.114 5.592 1.23 0.784 0.043 1.408 0.691 1.421 1.475 0.005 0.376 0.016 0.717 0.029 1.040 0.072 3.784 0.152 8.074-1.291 11.989z"></path>
<path fill="#219653" style="fill: var(--color2, #219653)" d="M14.4 8.026c-4.402 0.005-7.969 3.572-7.974 7.974v0.001c0.005 4.403 3.572 7.971 7.974 7.976h0.001c4.403-0.005 7.97-3.573 7.974-7.976v-0c-0.005-4.402-3.572-7.969-7.974-7.974h-0.001zM14.4 22.098c-3.365-0.005-6.091-2.731-6.096-6.096v-0c0-3.365 2.733-6.098 6.096-6.098s6.096 2.736 6.096 6.096c0 3.363-2.734 6.098-6.096 6.098z"></path>
<path fill="#219653" style="fill: var(--color2, #219653)" d="M16.691 13.525l-3.704 3.704-1.005-1.005c-0.169-0.163-0.398-0.263-0.652-0.263-0.519 0-0.939 0.42-0.939 0.939 0 0.253 0.1 0.483 0.263 0.652l1.67 1.669c0.17 0.171 0.404 0.276 0.664 0.276s0.494-0.106 0.664-0.276l4.368-4.368c0.163-0.169 0.263-0.398 0.263-0.652 0-0.519-0.421-0.939-0.939-0.939-0.253 0-0.483 0.1-0.652 0.263l0-0z"></path>
</symbol>
<symbol id="icon-delivery" viewBox="0 0 32 32">
<path fill="#219653" style="fill: var(--color2, #219653)" d="M26.667 17.618v-10.285c-0.004-0.125-0.043-0.241-0.107-0.338l0.002 0.002 0.010-0.006-4-6.667c-0.119-0.195-0.33-0.323-0.571-0.323h-17.333c-0 0-0.001 0-0.001 0-0.241 0-0.453 0.128-0.57 0.32l-0.002 0.003-3.998 6.669 0.010 0.005c-0.063 0.095-0.102 0.211-0.106 0.335l-0 0.001v18.667c0 0.368 0.298 0.667 0.667 0.667h16.949c0.902 3.1 3.716 5.328 7.051 5.333h0.001c4.048-0.005 7.327-3.285 7.333-7.332v-0c-0.005-3.335-2.233-6.147-5.281-7.037l-0.052-0.013zM21.622 1.333l3.2 5.334h-7.61l-1.066-5.334h5.475zM11.878 1.333h2.909l1.078 5.334h-5.053l1.067-5.334zM16 8v2.667h-5.336l-0.008-2.667h5.344zM5.045 1.333h5.477l-1.056 5.334h-7.621l3.2-5.334zM17.366 25.333h-16.030v-17.333h8v3.333c0 0.368 0.298 0.667 0.666 0.667h6.667c0.368 0 0.666-0.298 0.666-0.667l-0.011-3.333h8.010v9.366c-0.199-0.020-0.43-0.031-0.665-0.032h-0.001c-4.049 0.004-7.33 3.284-7.334 7.332v0c0 0.224 0.014 0.446 0.034 0.666zM24.667 30.667c-3.312-0.004-5.996-2.688-6-6v-0c0.004-3.312 2.688-5.996 6-6h0c3.312 0.004 5.996 2.688 6 6v0c-0.004 3.312-2.688 5.996-6 6h-0z"></path>
<path fill="#219653" style="fill: var(--color2, #219653)" d="M27.528 22.195l-4.195 4.195-1.528-1.528c-0.121-0.121-0.288-0.196-0.472-0.196-0.368 0-0.667 0.299-0.667 0.667 0 0.184 0.075 0.351 0.195 0.471v0l2 2c0.12 0.122 0.287 0.197 0.472 0.197s0.352-0.075 0.472-0.197l4.667-4.667c0.12-0.121 0.195-0.287 0.195-0.471 0-0.368-0.299-0.667-0.667-0.667-0.184 0-0.351 0.075-0.472 0.196v0z"></path>
</symbol>
<symbol id="icon-payment" viewBox="0 0 36 32">
<path fill="#219653" style="fill: var(--color2, #219653)" d="M33.778 21.698h-3.413l-0.958 7.225c-0.126 0.877-0.873 1.543-1.775 1.543-0.079 0-0.158-0.005-0.234-0.015l0.009 0.001-25.86-3.429c-0.876-0.119-1.545-0.863-1.545-1.762 0-0.084 0.006-0.166 0.017-0.247l-0.001 0.009 2.183-16.457c0.117-0.879 0.862-1.549 1.763-1.549 0.081 0 0.161 0.005 0.239 0.016l-0.009-0.001 1.714 0.226v-3.943c0-0.982 0.796-1.778 1.778-1.778v0h26.092c0.982 0 1.778 0.796 1.778 1.778v0 16.604c0 0.982-0.796 1.778-1.778 1.778v0zM29.168 21.698h-4.629l4.551 0.603 0.078-0.604zM1.191 25.182c-0.003 0.023-0.005 0.050-0.005 0.077 0 0.135 0.046 0.259 0.123 0.358l-0.001-0.001c0.094 0.123 0.233 0.209 0.392 0.231l0.003 0 25.858 3.428c0.023 0.003 0.049 0.005 0.076 0.005 0.302 0 0.551-0.222 0.594-0.512l0-0.003 0.235-1.765-27.040-3.586-0.235 1.769zM5.906 8.453l-1.867-0.245c-0.023-0.003-0.049-0.005-0.076-0.005-0.3 0-0.548 0.223-0.588 0.512l-0 0.003-1.323 9.996 3.854 0.508v-10.77zM5.984 20.43l-4.091-0.54-0.311 2.347 27.040 3.586 0.178-1.358 0.132-0.988-13.419-1.778h-7.828c-0.799-0.001-1.475-0.529-1.698-1.255l-0.003-0.013zM34.37 3.314c-0.001-0.327-0.266-0.592-0.594-0.592 0 0 0 0 0 0h-26.091c0 0 0 0 0 0-0.327 0-0.593 0.265-0.594 0.592v16.587l0.004 0.018c0 0.327 0.267 0.592 0.592 0.592h26.091c0.327 0 0.594-0.265 0.594-0.592v-16.604z"></path>
<path fill="#219653" style="fill: var(--color2, #219653)" d="M26.036 12.789c0.238 0.176 0.45 0.386 0.626 0.624 0.545-0.728 1.406-1.195 2.376-1.195 1.635 0 2.96 1.325 2.96 2.96s-1.325 2.96-2.96 2.96c-0.002 0-0.003 0-0.005 0h0c-0.97-0.003-1.829-0.472-2.366-1.196l-0.006-0.008c-0.546 0.735-1.411 1.205-2.387 1.205-1.638 0-2.965-1.328-2.965-2.965s1.328-2.965 2.965-2.965c0.663 0 1.275 0.217 1.769 0.585l-0.008-0.006zM29.033 16.953c0.982 0 1.779-0.796 1.779-1.779s-0.796-1.779-1.779-1.779v0c-0.982 0-1.779 0.796-1.779 1.779s0.796 1.779 1.779 1.779v0zM24.288 16.953c0.982 0 1.779-0.796 1.779-1.779s-0.796-1.779-1.779-1.779v0c-0.982 0-1.779 0.796-1.779 1.779s0.796 1.779 1.779 1.779v0zM10.649 17.547h-1.184v-1.186h1.186v1.186zM18.951 17.547h-7.113v-1.186h7.116v1.186zM18.951 15.175h-9.484v-1.188h9.488v1.188zM31.404 9.836h-21.348c-0.327-0.001-0.591-0.265-0.592-0.592v-3.557c0-0.329 0.265-0.594 0.592-0.594h21.348c0.327 0 0.594 0.267 0.594 0.594v3.556c0 0.329-0.267 0.594-0.594 0.594zM30.812 6.281h-20.164v2.37h20.16v-2.372z"></path>
</symbol>
<symbol id="icon-phone" viewBox="0 0 32 32">
<path fill="#33485d" style="fill: var(--color3, #33485d)" d="M31.161 24.686l-6.477-4.319c-0.293-0.197-0.654-0.314-1.043-0.314-0.603 0-1.139 0.282-1.486 0.721l-0.003 0.004-1.888 2.426c-0.149 0.195-0.381 0.319-0.642 0.319-0.144 0-0.279-0.038-0.395-0.103l0.004 0.002-0.358-0.198c-1.189-0.649-2.67-1.456-5.653-4.439-2.981-2.983-3.791-4.465-4.439-5.652l-0.196-0.358c-0.065-0.114-0.104-0.251-0.104-0.396 0-0.261 0.124-0.493 0.315-0.64l0.002-0.001 2.425-1.886c0.775-0.608 0.955-1.71 0.412-2.532l-4.32-6.477c-0.342-0.509-0.915-0.839-1.566-0.839-0.358 0-0.692 0.1-0.977 0.273l0.008-0.005-2.709 1.629c-0.841 0.501-1.464 1.293-1.735 2.234l-0.007 0.027c-0.975 3.552-0.241 9.685 8.793 18.721 7.187 7.185 12.538 9.119 16.214 9.119 0.847 0.003 1.69-0.107 2.507-0.327 0.968-0.277 1.761-0.901 2.252-1.724l0.010-0.017 1.628-2.707c0.169-0.277 0.27-0.612 0.27-0.971 0-0.651-0.33-1.224-0.833-1.562l-0.007-0.004zM30.812 26.675l-1.625 2.709c-0.359 0.613-0.942 1.066-1.627 1.26-3.281 0.901-9.012 0.155-17.685-8.518-8.674-8.673-9.419-14.404-8.518-17.685 0.203-0.698 0.654-1.269 1.249-1.622l0.013-0.007 2.708-1.625c0.12-0.073 0.265-0.117 0.42-0.117 0.282 0 0.531 0.143 0.678 0.361l0.002 0.003 4.316 6.477c0.085 0.127 0.136 0.284 0.136 0.453 0 0.261-0.122 0.494-0.312 0.645l-0.002 0.001-2.425 1.885c-0.447 0.345-0.732 0.88-0.732 1.483 0 0.335 0.088 0.65 0.243 0.922l-0.005-0.009 0.192 0.35c0.683 1.25 1.529 2.805 4.623 5.899 3.093 3.092 4.647 3.939 5.897 4.621l0.351 0.192c0.263 0.15 0.578 0.238 0.913 0.238 0.602 0 1.137-0.285 1.478-0.727l0.003-0.004 1.887-2.426c0.152-0.192 0.385-0.314 0.646-0.314 0.169 0 0.325 0.051 0.456 0.138l-0.003-0.002 6.476 4.32c0.363 0.241 0.473 0.725 0.247 1.1zM18.133 5.337c5.004 0.006 9.058 4.061 9.065 9.064v0.001c0 0.295 0.239 0.533 0.533 0.533s0.533-0.239 0.533-0.533v0c-0.007-5.593-4.539-10.125-10.132-10.131h-0.001c-0.295 0-0.533 0.239-0.533 0.533s0.239 0.533 0.533 0.533v0z"></path>
<path fill="#33485d" style="fill: var(--color3, #33485d)" d="M18.133 8.535c3.238 0.005 5.861 2.629 5.865 5.866v0c0 0.295 0.239 0.533 0.533 0.533s0.533-0.239 0.533-0.533v0c-0.004-3.827-3.105-6.928-6.931-6.933h-0.001c-0.295 0-0.533 0.239-0.533 0.533s0.239 0.533 0.533 0.533v0z"></path>
<path fill="#33485d" style="fill: var(--color3, #33485d)" d="M18.133 11.735c1.472 0.002 2.664 1.195 2.666 2.667v0c0 0.295 0.239 0.533 0.533 0.533s0.533-0.239 0.533-0.533v0c-0.002-2.061-1.672-3.732-3.733-3.733h-0c-0.295 0-0.533 0.239-0.533 0.533s0.239 0.533 0.533 0.533v0z"></path>
</symbol>
<symbol id="icon-balance" viewBox="0 0 32 32">
<path fill="#33485d" style="fill: var(--color3, #33485d)" d="M31.525 18.807l-3.65-7.819 1.575 0.452c0.054 0.016 0.116 0.025 0.18 0.025 0.36 0 0.651-0.292 0.651-0.651 0-0.296-0.197-0.545-0.467-0.625l-0.005-0.001-10.956-3.145 0.003-0.141c0-0.001 0-0.002 0-0.003 0-1.578-1.279-2.857-2.857-2.857-1.067 0-1.997 0.585-2.488 1.451l-0.007 0.014-10.957-3.143c-0.054-0.016-0.116-0.025-0.18-0.025-0.36 0-0.652 0.292-0.652 0.652 0 0.296 0.197 0.546 0.468 0.625l0.005 0.001 2.163 0.621-3.917 8.387c-0.256 0.092-0.436 0.332-0.436 0.614v0c0 0 0 0.001 0 0.001 0 2.887 2.34 5.227 5.227 5.227 1.447 0 2.756-0.588 3.702-1.537l0-0c0.961-0.937 1.557-2.244 1.559-3.69v-0c0-0.297-0.199-0.547-0.47-0.626l-0.005-0.001-3.639-7.793 6.771 1.942c-0.002 0.041-0.003 0.089-0.003 0.137 0 1.348 0.932 2.478 2.186 2.782l0.020 0.004v15.851c-2.236 0-4.115-0.034-4.432 0.032-1.195 0.258-2.078 1.302-2.086 2.554v0.913c0.011 0.368 0.309 0.662 0.677 0.668h12.986c0.368-0.006 0.666-0.3 0.677-0.667l0-0.001v-0.912c-0.007-1.253-0.891-2.297-2.068-2.553l-0.017-0.003c-0.22-0.064-2.293-0.031-4.433-0.031v-15.852c0.796-0.192 1.449-0.697 1.835-1.374l0.007-0.014 7.378 2.116-3.924 8.405c-0.257 0.091-0.437 0.332-0.437 0.615 0 0 0 0.001 0 0.001v-0c0 0 0 0.001 0 0.001 0 2.887 2.34 5.227 5.227 5.227 1.447 0 2.757-0.588 3.703-1.538l0-0c0.961-0.937 1.557-2.244 1.559-3.69v-0c-0-0.296-0.199-0.546-0.47-0.625l-0.005-0.001zM5.227 5.414l3.335 7.145h-6.669l3.333-7.145zM5.227 17.135c-0.007 0-0.015 0-0.023 0-1.932 0-3.535-1.406-3.844-3.25l-0.003-0.023h7.77c-0.336 1.871-1.952 3.273-3.895 3.273-0.002 0-0.003 0-0.005 0h0zM21.867 28.122v0.277h-11.733v-0.277c0-0.718 0.61-1.287 1.329-1.287h9.073c0.719 0 1.33 0.57 1.33 1.289zM16 8.459c-0.001 0-0.002 0-0.002 0-0.859 0-1.555-0.696-1.555-1.555s0.696-1.555 1.555-1.555c0.859 0 1.555 0.696 1.555 1.555 0 0.129-0.016 0.255-0.046 0.375l0.002-0.011c-0.015 0.037-0.028 0.080-0.036 0.124l-0.001 0.004c-0.213 0.621-0.792 1.060-1.473 1.061h-0zM30.074 18.752h-6.671l3.335-7.143 3.335 7.143zM26.738 23.328c-1.92 0.011-3.563-1.376-3.87-3.271h7.77c-0.337 1.871-1.952 3.271-3.895 3.271-0.002 0-0.003 0-0.005 0h0z"></path>
</symbol>
<symbol id="icon-instagram" viewBox="0 0 32 32">
<path fill="#dde8f0" style="fill: var(--color4, #dde8f0)" opacity="0.5" d="M31.191 4.486c-0.33-0.88-0.828-1.629-1.459-2.241l-0.002-0.001c-0.613-0.633-1.361-1.13-2.199-1.447l-0.041-0.014c-0.691-0.265-1.725-0.583-3.622-0.676-2.058-0.080-2.668-0.106-7.884-0.106-5.2 0-5.823 0.015-7.879 0.119-1.897 0.080-2.932 0.399-3.622 0.663-0.88 0.33-1.63 0.827-2.243 1.459l-0.001 0.002c-0.632 0.614-1.128 1.363-1.444 2.201l-0.014 0.042c-0.265 0.692-0.583 1.725-0.676 3.623-0.080 2.058-0.106 2.681-0.106 7.884 0 5.217 0.026 5.827 0.119 7.884 0.093 1.898 0.399 2.934 0.676 3.625 0.33 0.88 0.828 1.629 1.459 2.241l0.002 0.001c0.623 0.65 1.392 1.14 2.241 1.459 0.689 0.266 1.725 0.585 3.622 0.678 2.057 0.093 2.666 0.119 7.881 0.119s5.824-0.015 7.881-0.119c1.897-0.093 2.932-0.399 3.622-0.676 1.708-0.669 3.033-1.995 3.687-3.66l0.015-0.044c0.265-0.691 0.583-1.727 0.676-3.623 0.093-2.058 0.119-2.682 0.119-7.884 0-5.217-0.015-5.827-0.119-7.884-0.106-1.9-0.425-2.934-0.689-3.625zM15.987 26.013c-5.533-0.001-10.017-4.486-10.017-10.019 0-0.001 0-0.001 0-0.002v0c-0.001-0.062-0.002-0.136-0.002-0.209 0-5.533 4.486-10.019 10.019-10.019s10.019 4.486 10.019 10.019c0 0.073-0.001 0.147-0.002 0.22l0-0.011c0 0.001 0 0.002 0 0.003 0 5.532-4.484 10.017-10.016 10.019h-0zM26.401 7.924c-1.287 0-2.335-1.049-2.335-2.336 0-1.289 1.047-2.336 2.335-2.336s2.335 1.047 2.335 2.336c0 1.287-1.047 2.336-2.335 2.336z"></path>
</symbol>
<symbol id="icon-facebook" viewBox="0 0 16 32">
<path fill="#dde8f0" style="fill: var(--color4, #dde8f0)" opacity="0.5" d="M10 11v-4c0-1.107 0.893-2 2-2h2v-5h-4c-3.313 0.001-5.999 2.687-6 6v5h-4v5h4v16h6v-16h4l2-5h-6z"></path>
</symbol>
<symbol id="icon-twitter" viewBox="0 0 39 32">
<path fill="#dde8f0" style="fill: var(--color4, #dde8f0)" opacity="0.5" d="M39.111 3.762c-1.44 0.64-2.987 1.070-4.608 1.264 1.659-1.005 2.906-2.548 3.511-4.382l0.016-0.057c-1.467 0.885-3.174 1.561-4.992 1.929l-0.103 0.017c-1.468-1.567-3.551-2.544-5.861-2.544-4.432 0-8.025 3.593-8.025 8.025 0 0.652 0.078 1.286 0.224 1.893l-0.011-0.055c-6.684-0.345-12.564-3.521-16.506-8.343l-0.032-0.041c-0.684 1.153-1.088 2.541-1.088 4.024 0 0.004 0 0.008 0 0.012v-0.001c0 2.782 1.417 5.239 3.57 6.677-1.34-0.043-2.586-0.41-3.674-1.023l0.040 0.021v0.1c0 3.87 2.739 7.1 6.383 7.859l0.052 0.009c-0.632 0.179-1.357 0.281-2.107 0.281-0.536 0-1.060-0.053-1.567-0.153l0.051 0.008c1.056 3.213 3.999 5.505 7.487 5.573l0.008 0c-2.709 2.141-6.173 3.435-9.94 3.435-0.008 0-0.017 0-0.026-0h0.001c-0.649 0-1.287-0.037-1.915-0.112 3.471 2.261 7.718 3.605 12.279 3.605 0.008 0 0.015 0 0.023 0h-0.001c14.757 0 22.828-12.229 22.828-22.83 0-0.348-0.009-0.693-0.023-1.038 1.577-1.149 2.906-2.525 3.969-4.097l0.037-0.058z"></path>
</symbol>
<symbol id="icon-youtube" viewBox="0 0 46 32">
<path fill="#dde8f0" style="fill: var(--color4, #dde8f0)" opacity="0.5" d="M44.258 3.061c-1.253-2.229-2.613-2.64-5.385-2.795-2.768-0.188-9.726-0.267-15.756-0.267-6.041 0-13.001 0.078-15.767 0.263-2.764 0.16-4.128 0.565-5.394 2.8-1.291 2.224-1.956 6.062-1.956 12.816v0.025c0 6.725 0.665 10.59 1.956 12.795 1.266 2.229 2.626 2.635 5.39 2.821 2.768 0.162 9.73 0.258 15.771 0.258 6.030 0 12.988-0.096 15.76-0.254 2.77-0.188 4.13-0.592 5.385-2.823 1.303-2.204 1.961-6.069 1.961-12.795v-0.023c0-6.756-0.658-10.594-1.964-12.82zM17.333 24.556v-17.333l14.444 8.667-14.444 8.668z"></path>
</symbol>
<symbol id="icon-new-post" viewBox="0 0 90 32">
<path fill="#fff" style="fill: var(--color1, #fff)" d="M39.092 5.429h1.877c0.685 0 1.030 0.338 1.030 1.104v2.715h3.68v-2.715c0-0.766 0.339-1.105 1.11-1.105h1.796v1.783h-0.767l-0.087 0.087v7.639h-2.053v-3.819h-3.68v3.819h-2.052v-7.639s0-0.087-0.087-0.087h-0.768v-1.782zM53.974 5.259l0.047 0.005v1.957l-0.047-0.011c-1.538 0-2.737 1.276-2.737 2.89 0 1.696 1.199 3.053 2.737 3.053l0.047-0.011v1.959l-0.047 0.005c-2.737 0-4.96-2.206-4.96-5.007 0-2.72 2.223-4.843 4.96-4.843z"></path>
<path fill="#fff" style="fill: var(--color1, #fff)" d="M54.021 5.264l0.951 0.093c2.259 0.442 3.963 2.365 3.963 4.745 0 2.447-1.703 4.446-3.963 4.903l-0.951 0.098v-1.958l1.045-0.226c1.008-0.463 1.733-1.547 1.733-2.817 0-1.214-0.725-2.231-1.734-2.663l-1.045-0.215v-1.958zM59.362 5.429h4.236v1.781h-1.328v1.954h1.328v1.696h-1.328v2.123c0 0.087 0 0.087 0.087 0.087h1.241v1.867h-2.352c-0.685 0-1.024-0.339-1.024-1.105v-6.622h-0.86v-1.781z"></path>
<path fill="#fff" style="fill: var(--color1, #fff)" d="M63.598 5.429h0.042c1.883 0 2.994 1.017 2.994 2.549 0 0.93-0.427 1.525-0.853 1.952 0.771 0.34 1.28 1.188 1.28 2.118 0 1.785-1.367 2.89-3.333 2.89h-0.129v-1.867h0.211c0.685 0 1.117-0.427 1.117-1.105s-0.433-1.105-1.117-1.105h-0.211v-1.696h0.042c0.602 0 0.942-0.427 0.942-1.018 0-0.597-0.34-0.937-0.942-0.937h-0.042v-1.782zM70.997 5.429h1.024v2.719c-0.082 0.17-0.17 0.421-0.17 0.678l-0.684 1.953h0.853v1.779h-1.363l-0.602 1.532c-0.171 0.591-0.51 0.848-1.195 0.848h-1.286v-1.867h0.427c0.176 0 0.176 0 0.258-0.087l2.737-7.555zM72.021 5.429h1.029l2.738 7.556c0.082 0.086 0.082 0.086 0.252 0.086h0.346v1.867h-1.2c-0.684 0-1.024-0.257-1.199-0.935l-0.597-1.444h-1.369v-1.779h0.854l-0.679-1.953c0-0.257-0.087-0.509-0.175-0.678v-2.72zM39.092 17.653h7.441c0.685 0 1.111 0.338 1.111 1.105v6.451c0 0.082 0 0.082 0.087 0.082h0.685v1.871h-1.796c-0.772 0-1.111-0.339-1.111-1.105v-6.533s0-0.087-0.087-0.087h-3.422v7.726h-2.053v-7.726h-0.854v-1.785zM53.805 17.483l0.042 0.005v1.958l-0.042-0.011c-1.543 0-2.737 1.276-2.737 2.891 0 1.696 1.194 3.053 2.737 3.053l0.042-0.011v1.958l-0.042 0.005c-2.737 0-4.879-2.21-4.879-5.007 0-2.72 2.142-4.843 4.879-4.843z"></path>
<path fill="#fff" style="fill: var(--color1, #fff)" d="M53.845 17.488l0.983 0.093c2.301 0.442 3.936 2.365 3.936 4.745 0 2.447-1.635 4.447-3.936 4.905l-0.983 0.097v-1.958l1.086-0.226c1.024-0.463 1.699-1.547 1.699-2.816 0-1.214-0.675-2.233-1.699-2.663l-1.085-0.217v-1.958zM59.193 17.653h1.884c0.685 0 1.024 0.338 1.024 1.105v6.451c0 0.082 0 0.082 0.087 0.082h2.48v-7.639h2.053v7.639h2.481c0.087 0 0.087 0 0.087-0.082v-6.451c0-0.766 0.339-1.106 1.024-1.106h1.884v1.785h-0.772c-0.087 0-0.087 0.087-0.087 0.087v6.533c0 0.766-0.34 1.105-1.024 1.105h-9.155c-0.767 0-1.111-0.339-1.111-1.105v-6.533s0-0.087-0.082-0.087h-0.772v-1.785zM73.818 17.653h6.417c0.772 0 1.029 0.338 1.029 1.018v1.614h-1.884v-0.761c0-0.087 0-0.087-0.087-0.087h-1.195v7.726h-2.058v-7.726h-1.195c-0.086 0-0.086 0-0.086 0.087v0.761h-1.885v-1.614c0-0.679 0.257-1.019 0.942-1.019zM83.915 17.653h1.024v2.719c-0.087 0.17-0.171 0.421-0.171 0.678l-0.683 1.953h0.853v1.779h-1.37l-0.596 1.444c-0.171 0.678-0.514 0.935-1.199 0.935h-1.281v-1.871h0.427c0.175 0 0.175 0 0.257-0.082l2.738-7.557z"></path>
<path fill="#fff" style="fill: var(--color1, #fff)" d="M84.939 17.653h1.024l2.742 7.556c0.082 0.082 0.082 0.082 0.257 0.082h0.34v1.871h-1.199c-0.685 0-1.024-0.256-1.199-0.935l-0.597-1.444h-1.369v-1.779h0.853l-0.684-1.953c0-0.257-0.082-0.509-0.171-0.678v-2.72zM25.908 9.474c0.097-0.031 0.226 0.031 0.355 0.201l5.814 5.685c0.34 0.339 0.34 0.853 0 1.105l-5.814 5.773c-0.129 0.171-0.258 0.211-0.355 0.16-0.098-0.052-0.16-0.201-0.16-0.416v-12.14c0-0.21 0.062-0.338 0.16-0.369zM15.961 0h0.412l0.396 0.164 5.985 5.942c0.257 0.339 0.171 0.597-0.257 0.597h-2.48c-0.427 0-0.768 0.338-0.768 0.765v4.411c0 0.427-0.345 0.766-0.859 0.766h-4.358c-0.002 0-0.004 0-0.006 0-0.423 0-0.766-0.343-0.766-0.766 0 0 0-0 0-0v0-4.411c0-0.427-0.339-0.766-0.772-0.766h-2.65c-0.427 0-0.515-0.256-0.257-0.596l5.989-5.941 0.391-0.165zM6.585 9.346c0.108 0.051 0.175 0.199 0.175 0.416v12.388c0 0.217-0.067 0.345-0.175 0.386-0.103 0.041-0.253 0-0.427-0.128l-5.904-5.945c-0.34-0.252-0.34-0.766 0-1.105l5.902-5.856c0.175-0.169 0.324-0.21 0.427-0.158zM14.030 19.098h4.359c0.514 0 0.86 0.339 0.86 0.766v4.668c0 0.509 0.339 0.848 0.766 0.848h2.31c0.428 0 0.597 0.252 0.258 0.509l-5.815 5.855c-0.154 0.156-0.366 0.254-0.601 0.257h-0.001c-0.234-0.003-0.445-0.101-0.597-0.257l-0-0-5.815-5.856c-0.345-0.256-0.175-0.508 0.253-0.508h2.48c0.432 0 0.772-0.339 0.772-0.848v-4.668c0-0.427 0.345-0.766 0.771-0.766z"></path>
</symbol>
<symbol id="icon-wezom" viewBox="0 0 89 32">
<path fill="#fff" style="fill: var(--color1, #fff)" d="M87.23 1.915c-1.049-1.044-2.496-1.689-4.093-1.689s-3.044 0.645-4.093 1.689l0-0-19.426 19.774c-1.068 1.103-1.727 2.608-1.727 4.267s0.658 3.164 1.728 4.268l-0.002-0.002c1.052 1.091 2.527 1.769 4.16 1.771h0c0 0 0.001 0 0.001 0 1.633 0 3.108-0.679 4.158-1.769l0.002-0.002 19.291-19.746c1.070-1.107 1.73-2.617 1.73-4.281s-0.659-3.174-1.731-4.282l0.002 0.002z"></path>
<path fill="#fff" style="fill: var(--color1, #fff)" d="M40.354 1.915c1.056-1.084 2.529-1.757 4.16-1.758h0c0.001 0 0.001 0 0.002 0 1.631 0 3.105 0.673 4.158 1.757l0.001 0.001 19.291 19.774c1.068 1.103 1.727 2.608 1.727 4.267s-0.658 3.164-1.728 4.268l0.002-0.002c-1.053 1.091-2.527 1.77-4.161 1.771h-0c-0 0-0.001 0-0.001 0-1.633 0-3.108-0.679-4.158-1.769l-0.002-0.002-19.29-19.746c-1.076-1.104-1.74-2.615-1.74-4.281s0.664-3.176 1.742-4.282l-0.001 0.001z"></path>
<path fill="#fff" style="fill: var(--color1, #fff)" d="M48.703 1.915c-1.053-1.091-2.527-1.769-4.161-1.77h-0c-0 0-0.001 0-0.001 0-1.633 0-3.108 0.678-4.158 1.768l-0.002 0.002-19.291 19.774c-1.068 1.103-1.727 2.608-1.727 4.267s0.658 3.164 1.728 4.268l-0.002-0.002c1.056 1.084 2.53 1.757 4.161 1.758h0c0 0 0.001 0 0.001 0 1.631 0 3.105-0.673 4.158-1.757l0.001-0.001 19.291-19.774c1.068-1.103 1.727-2.608 1.727-4.267s-0.658-3.164-1.728-4.268l0.002 0.002z"></path>
<path fill="#fff" style="fill: var(--color1, #fff)" d="M1.719 1.778c1.056-1.084 2.53-1.757 4.161-1.758h0c0 0 0 0 0 0 1.631 0 3.105 0.673 4.158 1.757l0.001 0.001 19.291 19.774c1.068 1.103 1.727 2.608 1.727 4.267s-0.658 3.164-1.728 4.268l0.002-0.002c-1.056 1.084-2.529 1.757-4.16 1.758h-0c-0 0-0.001 0-0.001 0-1.631 0-3.105-0.673-4.159-1.757l-0.001-0.001-19.291-19.774c-1.068-1.103-1.727-2.608-1.727-4.267s0.658-3.164 1.728-4.268l-0.002 0.002z"></path>
</symbol>
<symbol id="icon-1-stars" viewBox="0 0 211 32">
<path fill="#ffa800" style="fill: var(--color5, #ffa800)" opacity="0.5" d="M83.473 28.235c-0.002 0-0.004 0-0.005 0-0.272 0-0.493-0.221-0.493-0.493 0-0.030 0.003-0.059 0.008-0.088l-0 0.003 1.544-8.922-6.532-6.315c-0.094-0.090-0.152-0.216-0.152-0.356 0-0.25 0.186-0.457 0.428-0.489l0.002-0 9.022-1.301 4.036-8.115c0.083-0.166 0.252-0.278 0.447-0.278s0.364 0.112 0.446 0.275l0.001 0.003 4.034 8.115 9.024 1.301c0.188 0.028 0.344 0.158 0.403 0.339 0.058 0.177 0.009 0.376-0.126 0.506l-6.53 6.317 1.542 8.919c0.004 0.024 0.006 0.051 0.006 0.079 0 0.276-0.223 0.499-0.499 0.499-0.084 0-0.163-0.021-0.233-0.058l0.003 0.001-8.072-4.211-8.072 4.211c-0.067 0.035-0.147 0.056-0.231 0.056h-0z"></path>
<path fill="#ffa800" style="fill: var(--color5, #ffa800)" d="M45.44 28.235c-0 0-0.001 0-0.001 0-0.11 0-0.211-0.035-0.294-0.095l0.001 0.001c-0.125-0.090-0.205-0.235-0.205-0.399 0-0.030 0.003-0.060 0.008-0.089l-0 0.003 1.542-8.92-6.53-6.315c-0.094-0.090-0.152-0.216-0.152-0.356 0-0.25 0.186-0.456 0.426-0.489l0.003-0 9.024-1.301 4.034-8.115c0.083-0.166 0.252-0.278 0.447-0.278s0.364 0.112 0.446 0.275l0.001 0.003 4.036 8.115 9.022 1.301c0.188 0.028 0.344 0.158 0.405 0.339 0.056 0.177 0.009 0.376-0.126 0.506l-6.532 6.317 1.544 8.919c0.004 0.024 0.006 0.052 0.006 0.080 0 0.276-0.223 0.499-0.499 0.499-0.085 0-0.165-0.021-0.235-0.059l0.003 0.001-8.070-4.211-8.072 4.211c-0.067 0.035-0.147 0.056-0.231 0.056h-0zM7.309 28.235c-0.002 0-0.004 0-0.005 0-0.272 0-0.493-0.221-0.493-0.493 0-0.030 0.003-0.059 0.008-0.088l-0 0.003 1.542-8.922-6.53-6.315c-0.094-0.090-0.152-0.216-0.152-0.356 0-0.25 0.186-0.456 0.426-0.489l0.003-0 9.024-1.301 4.036-8.115c0.084-0.165 0.252-0.276 0.446-0.276s0.362 0.111 0.445 0.273l0.001 0.003 4.036 8.115 9.024 1.301c0.188 0.028 0.343 0.158 0.403 0.339 0.056 0.177 0.009 0.376-0.126 0.506l-6.53 6.317 1.542 8.919c0.004 0.024 0.006 0.051 0.006 0.079 0 0.276-0.223 0.499-0.499 0.499-0.084 0-0.163-0.021-0.233-0.058l0.003 0.001-8.072-4.211-8.072 4.211c-0.067 0.035-0.147 0.056-0.231 0.056h-0z"></path>
<path fill="#ffa800" style="fill: var(--color5, #ffa800)" opacity="0.5" d="M157.352 28.235c-0.002 0-0.005 0-0.008 0-0.271 0-0.491-0.22-0.491-0.491 0-0.031 0.003-0.061 0.008-0.090l-0 0.003 1.542-8.922-6.532-6.315c-0.094-0.090-0.152-0.216-0.152-0.356 0-0.25 0.186-0.457 0.428-0.489l0.002-0 9.022-1.301 4.036-8.115c0.083-0.166 0.252-0.278 0.447-0.278s0.364 0.112 0.446 0.275l0.001 0.003 4.036 8.115 9.022 1.301c0.188 0.028 0.344 0.158 0.403 0.339 0.058 0.177 0.011 0.376-0.126 0.506l-6.53 6.317 1.544 8.919c0.004 0.024 0.006 0.051 0.006 0.079 0 0.276-0.223 0.499-0.499 0.499-0.084 0-0.163-0.021-0.233-0.058l0.003 0.001-8.072-4.211-8.072 4.211c-0.067 0.035-0.147 0.056-0.231 0.056h-0zM120.452 28.235c-0.002 0-0.005 0-0.008 0-0.271 0-0.491-0.22-0.491-0.491 0-0.031 0.003-0.061 0.008-0.090l-0 0.003 1.544-8.922-6.532-6.315c-0.094-0.090-0.152-0.216-0.152-0.356 0-0.25 0.186-0.457 0.428-0.489l0.002-0 9.022-1.301 4.036-8.115c0.083-0.166 0.252-0.278 0.447-0.278s0.364 0.112 0.446 0.275l0.001 0.003 4.036 8.115 9.022 1.301c0.188 0.028 0.344 0.158 0.405 0.339 0.056 0.177 0.009 0.376-0.126 0.506l-6.532 6.317 1.544 8.919c0.004 0.024 0.006 0.052 0.006 0.080 0 0.276-0.223 0.499-0.499 0.499-0.085 0-0.165-0.021-0.235-0.059l0.003 0.001-8.070-4.211-8.072 4.211c-0.067 0.035-0.147 0.056-0.231 0.056h-0z"></path>
</symbol>
<symbol id="icon-3-stars" viewBox="0 0 211 32">
<path fill="#ffa800" style="fill: var(--color5, #ffa800)" d="M83.473 28.235c-0.002 0-0.004 0-0.005 0-0.272 0-0.493-0.221-0.493-0.493 0-0.030 0.003-0.059 0.008-0.088l-0 0.003 1.544-8.922-6.532-6.315c-0.094-0.090-0.152-0.216-0.152-0.356 0-0.25 0.186-0.457 0.428-0.489l0.002-0 9.022-1.301 4.036-8.115c0.083-0.166 0.252-0.278 0.447-0.278s0.364 0.112 0.446 0.275l0.001 0.003 4.034 8.115 9.024 1.301c0.188 0.028 0.344 0.158 0.403 0.339 0.058 0.177 0.009 0.376-0.126 0.506l-6.53 6.317 1.542 8.919c0.004 0.024 0.006 0.051 0.006 0.079 0 0.276-0.223 0.499-0.499 0.499-0.084 0-0.163-0.021-0.233-0.058l0.003 0.001-8.072-4.211-8.072 4.211c-0.067 0.035-0.147 0.056-0.231 0.056h-0zM45.44 28.235c-0 0-0.001 0-0.001 0-0.11 0-0.211-0.035-0.294-0.095l0.001 0.001c-0.125-0.090-0.205-0.235-0.205-0.399 0-0.030 0.003-0.060 0.008-0.089l-0 0.003 1.542-8.92-6.53-6.315c-0.094-0.090-0.152-0.216-0.152-0.356 0-0.25 0.186-0.456 0.426-0.489l0.003-0 9.024-1.301 4.034-8.115c0.083-0.166 0.252-0.278 0.447-0.278s0.364 0.112 0.446 0.275l0.001 0.003 4.036 8.115 9.022 1.301c0.188 0.028 0.344 0.158 0.405 0.339 0.056 0.177 0.009 0.376-0.126 0.506l-6.532 6.317 1.544 8.919c0.004 0.024 0.006 0.052 0.006 0.080 0 0.276-0.223 0.499-0.499 0.499-0.085 0-0.165-0.021-0.235-0.059l0.003 0.001-8.070-4.211-8.072 4.211c-0.067 0.035-0.147 0.056-0.231 0.056h-0zM7.309 28.235c-0.002 0-0.004 0-0.005 0-0.272 0-0.493-0.221-0.493-0.493 0-0.030 0.003-0.059 0.008-0.088l-0 0.003 1.542-8.922-6.53-6.315c-0.094-0.090-0.152-0.216-0.152-0.356 0-0.25 0.186-0.456 0.426-0.489l0.003-0 9.024-1.301 4.036-8.115c0.084-0.165 0.252-0.276 0.446-0.276s0.362 0.111 0.445 0.273l0.001 0.003 4.036 8.115 9.024 1.301c0.188 0.028 0.343 0.158 0.403 0.339 0.056 0.177 0.009 0.376-0.126 0.506l-6.53 6.317 1.542 8.919c0.004 0.024 0.006 0.051 0.006 0.079 0 0.276-0.223 0.499-0.499 0.499-0.084 0-0.163-0.021-0.233-0.058l0.003 0.001-8.072-4.211-8.072 4.211c-0.067 0.035-0.147 0.056-0.231 0.056h-0z"></path>
<path fill="#ffa800" style="fill: var(--color5, #ffa800)" opacity="0.5" d="M157.352 28.235c-0.002 0-0.005 0-0.008 0-0.271 0-0.491-0.22-0.491-0.491 0-0.031 0.003-0.061 0.008-0.090l-0 0.003 1.542-8.922-6.532-6.315c-0.094-0.090-0.152-0.216-0.152-0.356 0-0.25 0.186-0.457 0.428-0.489l0.002-0 9.022-1.301 4.036-8.115c0.083-0.166 0.252-0.278 0.447-0.278s0.364 0.112 0.446 0.275l0.001 0.003 4.036 8.115 9.022 1.301c0.188 0.028 0.344 0.158 0.403 0.339 0.058 0.177 0.011 0.376-0.126 0.506l-6.53 6.317 1.544 8.919c0.004 0.024 0.006 0.051 0.006 0.079 0 0.276-0.223 0.499-0.499 0.499-0.084 0-0.163-0.021-0.233-0.058l0.003 0.001-8.072-4.211-8.072 4.211c-0.067 0.035-0.147 0.056-0.231 0.056h-0zM120.452 28.235c-0.002 0-0.005 0-0.008 0-0.271 0-0.491-0.22-0.491-0.491 0-0.031 0.003-0.061 0.008-0.090l-0 0.003 1.544-8.922-6.532-6.315c-0.094-0.090-0.152-0.216-0.152-0.356 0-0.25 0.186-0.457 0.428-0.489l0.002-0 9.022-1.301 4.036-8.115c0.083-0.166 0.252-0.278 0.447-0.278s0.364 0.112 0.446 0.275l0.001 0.003 4.036 8.115 9.022 1.301c0.188 0.028 0.344 0.158 0.405 0.339 0.056 0.177 0.009 0.376-0.126 0.506l-6.532 6.317 1.544 8.919c0.004 0.024 0.006 0.052 0.006 0.080 0 0.276-0.223 0.499-0.499 0.499-0.085 0-0.165-0.021-0.235-0.059l0.003 0.001-8.070-4.211-8.072 4.211c-0.067 0.035-0.147 0.056-0.231 0.056h-0z"></path>
</symbol>
<symbol id="icon-5-stars" viewBox="0 0 211 32">
<path fill="#ffa800" style="fill: var(--color5, #ffa800)" d="M83.473 28.235c-0.002 0-0.004 0-0.005 0-0.272 0-0.493-0.221-0.493-0.493 0-0.030 0.003-0.059 0.008-0.088l-0 0.003 1.544-8.922-6.532-6.315c-0.094-0.090-0.152-0.216-0.152-0.356 0-0.25 0.186-0.457 0.428-0.489l0.002-0 9.022-1.301 4.036-8.115c0.083-0.166 0.252-0.278 0.447-0.278s0.364 0.112 0.446 0.275l0.001 0.003 4.034 8.115 9.024 1.301c0.188 0.028 0.344 0.158 0.403 0.339 0.058 0.177 0.009 0.376-0.126 0.506l-6.53 6.317 1.542 8.919c0.004 0.024 0.006 0.051 0.006 0.079 0 0.276-0.223 0.499-0.499 0.499-0.084 0-0.163-0.021-0.233-0.058l0.003 0.001-8.072-4.211-8.072 4.211c-0.067 0.035-0.147 0.056-0.231 0.056h-0zM45.44 28.235c-0 0-0.001 0-0.001 0-0.11 0-0.211-0.035-0.294-0.095l0.001 0.001c-0.125-0.090-0.205-0.235-0.205-0.399 0-0.030 0.003-0.060 0.008-0.089l-0 0.003 1.542-8.92-6.53-6.315c-0.094-0.090-0.152-0.216-0.152-0.356 0-0.25 0.186-0.456 0.426-0.489l0.003-0 9.024-1.301 4.034-8.115c0.083-0.166 0.252-0.278 0.447-0.278s0.364 0.112 0.446 0.275l0.001 0.003 4.036 8.115 9.022 1.301c0.188 0.028 0.344 0.158 0.405 0.339 0.056 0.177 0.009 0.376-0.126 0.506l-6.532 6.317 1.544 8.919c0.004 0.024 0.006 0.052 0.006 0.080 0 0.276-0.223 0.499-0.499 0.499-0.085 0-0.165-0.021-0.235-0.059l0.003 0.001-8.070-4.211-8.072 4.211c-0.067 0.035-0.147 0.056-0.231 0.056h-0zM7.309 28.235c-0.002 0-0.004 0-0.005 0-0.272 0-0.493-0.221-0.493-0.493 0-0.030 0.003-0.059 0.008-0.088l-0 0.003 1.542-8.922-6.53-6.315c-0.094-0.090-0.152-0.216-0.152-0.356 0-0.25 0.186-0.456 0.426-0.489l0.003-0 9.024-1.301 4.036-8.115c0.084-0.165 0.252-0.276 0.446-0.276s0.362 0.111 0.445 0.273l0.001 0.003 4.036 8.115 9.024 1.301c0.188 0.028 0.343 0.158 0.403 0.339 0.056 0.177 0.009 0.376-0.126 0.506l-6.53 6.317 1.542 8.919c0.004 0.024 0.006 0.051 0.006 0.079 0 0.276-0.223 0.499-0.499 0.499-0.084 0-0.163-0.021-0.233-0.058l0.003 0.001-8.072-4.211-8.072 4.211c-0.067 0.035-0.147 0.056-0.231 0.056h-0zM157.352 28.235c-0.002 0-0.005 0-0.008 0-0.271 0-0.491-0.22-0.491-0.491 0-0.031 0.003-0.061 0.008-0.090l-0 0.003 1.542-8.922-6.532-6.315c-0.094-0.090-0.152-0.216-0.152-0.356 0-0.25 0.186-0.457 0.428-0.489l0.002-0 9.022-1.301 4.036-8.115c0.083-0.166 0.252-0.278 0.447-0.278s0.364 0.112 0.446 0.275l0.001 0.003 4.036 8.115 9.022 1.301c0.188 0.028 0.344 0.158 0.403 0.339 0.058 0.177 0.011 0.376-0.126 0.506l-6.53 6.317 1.544 8.919c0.004 0.024 0.006 0.051 0.006 0.079 0 0.276-0.223 0.499-0.499 0.499-0.084 0-0.163-0.021-0.233-0.058l0.003 0.001-8.072-4.211-8.072 4.211c-0.067 0.035-0.147 0.056-0.231 0.056h-0zM120.452 28.235c-0.002 0-0.005 0-0.008 0-0.271 0-0.491-0.22-0.491-0.491 0-0.031 0.003-0.061 0.008-0.090l-0 0.003 1.544-8.922-6.532-6.315c-0.094-0.090-0.152-0.216-0.152-0.356 0-0.25 0.186-0.457 0.428-0.489l0.002-0 9.022-1.301 4.036-8.115c0.083-0.166 0.252-0.278 0.447-0.278s0.364 0.112 0.446 0.275l0.001 0.003 4.036 8.115 9.022 1.301c0.188 0.028 0.344 0.158 0.405 0.339 0.056 0.177 0.009 0.376-0.126 0.506l-6.532 6.317 1.544 8.919c0.004 0.024 0.006 0.052 0.006 0.080 0 0.276-0.223 0.499-0.499 0.499-0.085 0-0.165-0.021-0.235-0.059l0.003 0.001-8.070-4.211-8.072 4.211c-0.067 0.035-0.147 0.056-0.231 0.056h-0z"></path>
</symbol> 
<symbol id="icon-4-stars" viewBox="0 0 190 32">
<path fill="#ffa800" style="fill: var(--color5, #ffa800)" d="M121.555 28.235c-0.002 0-0.004 0-0.005 0-0.272 0-0.493-0.221-0.493-0.493 0-0.030 0.003-0.059 0.008-0.088l-0 0.003 1.542-8.922-6.532-6.315c-0.094-0.090-0.152-0.216-0.152-0.356 0-0.25 0.186-0.457 0.428-0.489l0.002-0 9.022-1.301 4.036-8.115c0.083-0.166 0.252-0.278 0.447-0.278s0.364 0.112 0.446 0.275l0.001 0.003 4.036 8.115 9.022 1.301c0.188 0.028 0.344 0.158 0.403 0.339 0.058 0.177 0.011 0.376-0.126 0.506l-6.528 6.317 1.54 8.919c0.004 0.024 0.006 0.052 0.006 0.080 0 0.276-0.223 0.499-0.499 0.499-0.085 0-0.165-0.021-0.235-0.059l0.003 0.001-8.068-4.211-8.072 4.211c-0.067 0.036-0.147 0.056-0.231 0.056h-0zM83.473 28.235c-0.002 0-0.004 0-0.005 0-0.272 0-0.493-0.221-0.493-0.493 0-0.030 0.003-0.059 0.008-0.088l-0 0.003 1.544-8.922-6.532-6.315c-0.094-0.090-0.152-0.216-0.152-0.356 0-0.25 0.186-0.457 0.428-0.489l0.002-0 9.022-1.301 4.036-8.115c0.083-0.166 0.252-0.278 0.447-0.278s0.364 0.112 0.446 0.275l0.001 0.003 4.034 8.115 9.024 1.301c0.188 0.028 0.344 0.158 0.403 0.339 0.058 0.177 0.009 0.376-0.126 0.506l-6.53 6.317 1.542 8.919c0.004 0.024 0.006 0.051 0.006 0.079 0 0.276-0.223 0.499-0.499 0.499-0.084 0-0.163-0.021-0.233-0.058l0.003 0.001-8.072-4.211-8.072 4.211c-0.067 0.035-0.147 0.056-0.231 0.056h-0zM45.44 28.235c-0 0-0.001 0-0.001 0-0.11 0-0.211-0.035-0.294-0.095l0.001 0.001c-0.125-0.090-0.205-0.235-0.205-0.399 0-0.030 0.003-0.060 0.008-0.089l-0 0.003 1.542-8.92-6.53-6.315c-0.094-0.090-0.152-0.216-0.152-0.356 0-0.25 0.186-0.456 0.426-0.489l0.003-0 9.024-1.301 4.034-8.115c0.083-0.166 0.252-0.278 0.447-0.278s0.364 0.112 0.446 0.275l0.001 0.003 4.036 8.115 9.022 1.301c0.188 0.028 0.344 0.158 0.405 0.339 0.056 0.177 0.009 0.376-0.126 0.506l-6.532 6.317 1.544 8.919c0.004 0.024 0.006 0.052 0.006 0.080 0 0.276-0.223 0.499-0.499 0.499-0.085 0-0.165-0.021-0.235-0.059l0.003 0.001-8.070-4.211-8.072 4.211c-0.067 0.035-0.147 0.056-0.231 0.056h-0zM7.309 28.235c-0.002 0-0.004 0-0.005 0-0.272 0-0.493-0.221-0.493-0.493 0-0.030 0.003-0.059 0.008-0.088l-0 0.003 1.542-8.922-6.53-6.315c-0.094-0.090-0.152-0.216-0.152-0.356 0-0.25 0.186-0.456 0.426-0.489l0.003-0 9.024-1.301 4.036-8.115c0.084-0.165 0.252-0.276 0.446-0.276s0.362 0.111 0.445 0.273l0.001 0.003 4.036 8.115 9.024 1.301c0.188 0.028 0.343 0.158 0.403 0.339 0.056 0.177 0.009 0.376-0.126 0.506l-6.53 6.317 1.542 8.919c0.004 0.024 0.006 0.051 0.006 0.079 0 0.276-0.223 0.499-0.499 0.499-0.084 0-0.163-0.021-0.233-0.058l0.003 0.001-8.072-4.211-8.072 4.211c-0.067 0.035-0.147 0.056-0.231 0.056h-0z"></path>
<path fill="#ffa800" style="fill: var(--color5, #ffa800)" opacity="0.5" d="M157.352 28.235c-0.002 0-0.005 0-0.008 0-0.271 0-0.491-0.22-0.491-0.491 0-0.031 0.003-0.061 0.008-0.090l-0 0.003 1.542-8.922-6.532-6.315c-0.094-0.090-0.152-0.216-0.152-0.356 0-0.25 0.186-0.457 0.428-0.489l0.002-0 9.022-1.301 4.036-8.115c0.083-0.166 0.252-0.278 0.447-0.278s0.364 0.112 0.446 0.275l0.001 0.003 4.036 8.115 9.022 1.301c0.188 0.028 0.344 0.158 0.403 0.339 0.058 0.177 0.011 0.376-0.126 0.506l-6.53 6.317 1.544 8.919c0.004 0.024 0.006 0.051 0.006 0.079 0 0.276-0.223 0.499-0.499 0.499-0.084 0-0.163-0.021-0.233-0.058l0.003 0.001-8.072-4.211-8.072 4.211c-0.067 0.035-0.147 0.056-0.231 0.056h-0z"></path>
</symbol>
<symbol id="icon-heart" viewBox="0 0 33 32">
<path fill="#33485d" style="fill: var(--color3, #33485d)" d="M31.506 8.348c-1.056-2.865-3.586-4.739-6.601-4.893l-0.034-0.001h-0.443c-3.806 0-7.074 2.343-8.439 5.663-1.365-3.319-4.634-5.663-8.439-5.663h-0.477c-3.008 0.155-5.53 2.031-6.58 4.898-1.085 2.96-0.346 6.125 1.927 8.256l11.957 11.31c0.433 0.39 1.009 0.629 1.641 0.629 0.001 0 0.001 0 0.002 0h-0c0.591 0 1.178-0.213 1.627-0.64l1.819-1.715c0.455-0.457 0.715-1.058 0.726-1.694 0-0.016 0.001-0.035 0.001-0.054 0-0.651-0.265-1.241-0.694-1.666l-0-0c-0.124-0.13-0.299-0.211-0.493-0.211-0.376 0-0.681 0.305-0.681 0.681 0 0.194 0.081 0.369 0.211 0.493l0 0c0.407 0.409 0.393 1.061-0.019 1.474l-1.805 1.702c-0.386 0.366-1.013 0.359-1.412 0l-11.947-11.301c-1.87-1.754-2.476-4.358-1.582-6.797 0.857-2.34 2.908-3.874 5.355-4.004h0.423c4.278 0 7.759 3.481 7.759 7.759 0 0.376 0.305 0.681 0.681 0.681s0.681-0.305 0.681-0.681v0c0-4.278 3.481-7.759 7.759-7.759h0.425c2.453 0.131 4.512 1.664 5.376 4.004 0.896 2.43 0.293 5.035-1.586 6.813l-3.811 3.811c-0.437 0.43-0.708 1.028-0.709 1.688v0c0 0.633 0.252 1.232 0.709 1.69 0.122 0.116 0.287 0.188 0.469 0.188 0.376 0 0.681-0.305 0.681-0.681 0-0.182-0.072-0.347-0.188-0.47l0 0c-0.19-0.185-0.308-0.442-0.31-0.727v-0c0-0.268 0.11-0.526 0.31-0.726l3.797-3.797c2.269-2.146 3.003-5.311 1.915-8.26z"></path>
</symbol>
<symbol id="icon-path-left" viewBox="0 0 18 32">
<path fill="#33485d" style="fill: var(--color3, #33485d)" d="M14.746 0.797c0.198-0.192 0.469-0.31 0.767-0.31 0.609 0 1.103 0.494 1.103 1.103 0 0.298-0.118 0.568-0.31 0.767l-13.643 13.643 13.643 13.643c0.192 0.198 0.31 0.469 0.31 0.767 0 0.609-0.494 1.103-1.103 1.103-0.298 0-0.568-0.118-0.767-0.31l-14.423-14.422c-0.2-0.2-0.324-0.476-0.324-0.781s0.124-0.581 0.324-0.781v0l14.423-14.423z"></path>
</symbol>
<symbol id="icon-path-right" viewBox="0 0 18 32">
<path fill="#33485d" style="fill: var(--color3, #33485d)" d="M1.962 0.797c-0.198-0.192-0.469-0.31-0.767-0.31-0.609 0-1.103 0.494-1.103 1.103 0 0.298 0.118 0.568 0.31 0.767l13.643 13.643-13.643 13.643c-0.208 0.201-0.337 0.482-0.337 0.794 0 0.609 0.494 1.103 1.103 1.103 0.311 0 0.593-0.129 0.793-0.337l14.423-14.422c0.2-0.2 0.324-0.476 0.324-0.781s-0.124-0.581-0.324-0.781v0l-14.421-14.423z"></path>
</symbol>
<symbol id="icon-check" viewBox="0 0 34 32">
<path fill="#219653" style="fill: var(--color2, #219653)" d="M17.544 19.168l13.123-14.403 1.733 1.579-14.736 16.173-8.032-7.637 1.616-1.696 6.296 5.986zM31.49 10.784l-1.827 2.013c0.264 1.019 0.406 2.086 0.406 3.187 0 6.979-5.678 12.656-12.656 12.656-6.979 0-12.656-5.677-12.656-12.656 0-6.978 5.677-12.656 12.656-12.656 3.232 0 6.186 1.219 8.426 3.221l1.579-1.739c-2.627-2.372-6.126-3.824-9.963-3.824-0.015 0-0.029 0-0.044 0h0.002c-0.013-0-0.028-0-0.044-0-4.128 0-7.865 1.679-10.563 4.391l-0.001 0.001c-2.713 2.699-4.392 6.436-4.392 10.564 0 0.015 0 0.031 0 0.046v-0.002c0 4.005 1.56 7.773 4.392 10.605 2.699 2.714 6.436 4.394 10.566 4.394 0.015 0 0.030-0 0.045-0h-0.002c0.012 0 0.026 0 0.041 0 4.129 0 7.866-1.68 10.565-4.393l0.001-0.001c2.714-2.7 4.394-6.437 4.394-10.566 0-0.014-0-0.028-0-0.042v0.002c0-0.006 0-0.012 0-0.019 0-1.86-0.339-3.641-0.957-5.284l0.034 0.103z"></path>
</symbol>
<symbol id="icon-2-stars" viewBox="0 0 217 32">
<path fill="#ffa800" style="fill: var(--color5, #ffa800)" d="M53.136 32c-0.002 0-0.004 0-0.007 0-0.331 0-0.599-0.268-0.599-0.599 0-0.036 0.003-0.072 0.009-0.107l-0.001 0.004 1.874-10.834-7.931-7.669c-0.114-0.109-0.184-0.262-0.184-0.432 0-0.304 0.226-0.555 0.52-0.594l0.003-0 10.955-1.579 4.901-9.854c0.101-0.201 0.306-0.337 0.543-0.337s0.442 0.136 0.541 0.334l0.002 0.003 4.901 9.854 10.955 1.579c0.229 0.034 0.418 0.192 0.489 0.411 0.071 0.215 0.014 0.457-0.153 0.615l-7.927 7.671 1.87 10.83c0.005 0.029 0.008 0.063 0.008 0.097 0 0.335-0.271 0.606-0.606 0.606-0.103 0-0.2-0.026-0.285-0.071l0.003 0.002-9.799-5.113-9.799 5.113c-0.082 0.043-0.178 0.069-0.281 0.069h-0zM6.834 32c-0.002 0-0.004 0-0.007 0-0.331 0-0.599-0.268-0.599-0.599 0-0.036 0.003-0.072 0.009-0.107l-0.001 0.004 1.874-10.834-7.931-7.669c-0.114-0.109-0.184-0.262-0.184-0.432 0-0.304 0.226-0.555 0.52-0.594l0.003-0 10.955-1.579 4.901-9.854c0.101-0.201 0.306-0.337 0.543-0.337s0.442 0.136 0.541 0.334l0.002 0.003 4.901 9.854 10.955 1.579c0.229 0.034 0.418 0.192 0.489 0.411 0.071 0.215 0.014 0.457-0.153 0.615l-7.927 7.671 1.87 10.83c0.005 0.029 0.008 0.062 0.008 0.096 0 0.335-0.271 0.606-0.606 0.606-0.102 0-0.198-0.025-0.283-0.070l0.003 0.002-9.799-5.113-9.801 5.113c-0.082 0.043-0.178 0.068-0.281 0.069h-0z"></path>
<path fill="#ffa800" style="fill: var(--color5, #ffa800)" opacity="0.5" d="M189.029 32c-0.002 0-0.004 0-0.007 0-0.331 0-0.599-0.268-0.599-0.599 0-0.036 0.003-0.072 0.009-0.107l-0.001 0.004 1.874-10.834-7.931-7.669c-0.114-0.109-0.185-0.263-0.185-0.433 0-0.303 0.225-0.554 0.518-0.593l0.003-0 10.958-1.579 4.901-9.854c0.101-0.201 0.306-0.337 0.543-0.337s0.442 0.136 0.541 0.334l0.002 0.003 4.898 9.854 10.958 1.579c0.229 0.034 0.418 0.192 0.489 0.411 0.071 0.215 0.011 0.457-0.153 0.615l-7.929 7.671 1.872 10.83c0.005 0.029 0.008 0.063 0.008 0.097 0 0.335-0.271 0.606-0.606 0.606-0.103 0-0.2-0.026-0.285-0.071l0.003 0.002-9.799-5.113-9.801 5.113c-0.082 0.043-0.178 0.068-0.281 0.069h-0zM99.406 32c-0.003 0-0.006 0-0.009 0-0.329 0-0.597-0.267-0.597-0.597 0-0.037 0.003-0.074 0.010-0.109l-0.001 0.004 1.874-10.834-7.931-7.669c-0.114-0.109-0.184-0.262-0.184-0.432 0-0.304 0.226-0.555 0.52-0.594l0.003-0 10.955-1.579 4.901-9.854c0.101-0.201 0.306-0.337 0.543-0.337s0.442 0.136 0.541 0.334l0.002 0.003 4.901 9.854 10.958 1.579c0.229 0.034 0.416 0.192 0.489 0.411 0.069 0.215 0.011 0.457-0.153 0.615l-7.931 7.671 1.874 10.83c0.005 0.029 0.008 0.063 0.008 0.097 0 0.335-0.271 0.606-0.606 0.606-0.103 0-0.2-0.026-0.285-0.071l0.003 0.002-9.799-5.113-9.801 5.113c-0.082 0.043-0.178 0.068-0.281 0.069h-0zM146.263 32c-0.003 0-0.006 0-0.009 0-0.329 0-0.597-0.267-0.597-0.597 0-0.037 0.003-0.074 0.010-0.109l-0.001 0.004 1.874-10.834-7.931-7.669c-0.114-0.109-0.184-0.262-0.184-0.432 0-0.304 0.226-0.555 0.52-0.594l0.003-0 10.955-1.579 4.901-9.854c0.101-0.201 0.306-0.337 0.543-0.337s0.442 0.136 0.541 0.334l0.002 0.003 4.901 9.854 10.955 1.579c0.229 0.034 0.418 0.192 0.491 0.411 0.069 0.215 0.011 0.457-0.153 0.615l-7.931 7.671 1.874 10.83c0.005 0.029 0.008 0.063 0.008 0.097 0 0.335-0.271 0.606-0.606 0.606-0.103 0-0.2-0.026-0.285-0.071l0.003 0.002-9.799-5.113-9.801 5.113c-0.082 0.043-0.178 0.068-0.281 0.069h-0z"></path>
</symbol>
</defs>
</svg>
